<?xml version="1.0" encoding="UTF-8" standalone="no"?><!DOCTYPE svg PUBLIC "-//W3C//DTD SVG 1.1//EN" "http://www.w3.org/Graphics/SVG/1.1/DTD/svg11.dtd"><svg width="100%" height="100%" viewBox="0 0 3638 3638" version="1.1" xmlns="http://www.w3.org/2000/svg" xmlns:xlink="http://www.w3.org/1999/xlink" xml:space="preserve" xmlns:serif="http://www.serif.com/" style="fill-rule:evenodd;clip-rule:evenodd;stroke-linejoin:round;stroke-miterlimit:2;"><rect id="Artboard1" x="0" y="0" width="3637.5" height="3637.5" style="fill:none;"/><g id="Background"><path d="M2154.207,2026.192c15.62,-71.167 28.39,-67.342 43.612,-149.28c4.104,-22.091 5.297,-21.366 9.066,-43.484c13.501,-79.214 15.423,-80.631 21.048,-84.777c73.521,-54.201 51.963,-70.284 112.589,-228.933c5.888,-15.408 68.313,-178.764 6.355,-206.09c-57.274,-25.26 -160.08,139.31 -192.453,140.184c-17.386,0.469 -25.162,-8.323 -27.555,9.001c-0.097,0.701 2.91,58.61 -35.739,110.112c-70.284,93.657 -249.187,120.779 -327.167,-42.832c-13.822,-29 -6.192,-82.642 -20.368,-89.443c-64.805,-31.088 -169.196,-18.785 -170.907,17.138c-11.521,241.938 -310.56,239.815 -364.242,63.068c-16.515,-54.375 -5.155,-74.122 -26.801,-66.681c-15.525,5.337 4.64,59.505 18.692,268.555c17.377,258.508 91.635,346.754 111.562,370.435c27.577,32.772 28.026,31.868 56.079,63.83c2.65,10.489 12.56,134.635 4.416,156.725c-28.396,48.772 -39.13,42.53 -76.491,131.317c-75.923,180.429 -23.382,259.473 -138.482,295.261c-17.753,5.52 -19.515,1.97 -32.345,14.938c-9.198,1.085 -14.849,-6.918 -49.33,18.327c-87.683,64.195 -213.196,-14.511 -253.924,-73.912c-14.418,-21.028 -7.507,-25.715 -27.089,-42.403c7.558,-87.437 13.984,-86.524 24.522,-125.299c18.024,-65.015 52.418,-131.041 -2.854,-93.991c-76.718,51.425 -77.977,79.669 -83.567,113.166c-13.212,15.756 -16.307,13.281 -38.453,11.073c-39.981,-37.014 -40.016,-93.052 -11.907,-134.431c41.999,-61.826 139.525,-59.503 60.608,-151.26c-90.162,-104.833 32.398,-128.065 36.87,-197.441c3.265,-50.646 -32.372,-0.919 -42.595,9.179c-38.566,38.094 -102.174,39.617 -129.136,-28.399c-8.085,-20.395 12.006,-13.122 18.22,-8.552c82.098,60.363 123.778,-52.131 110.954,-63.215c-5.574,-4.817 -10.024,1.435 -10.522,2.135c-21.185,29.766 -77.186,55.186 -108.549,30.124c-33.509,-26.776 2.764,-81.84 6.558,-41.996c5.594,58.756 73.998,14.089 89.773,-28.878c11.326,-30.85 -10.263,-20.194 -15.254,-19.669c-97.528,10.246 -101.38,-100.893 -81.834,-110.622c34.786,-17.316 -17.869,73.321 62.591,81.486c84.396,8.564 82.612,-79.407 83.346,-86.329c2.109,-19.888 -21.909,-10.892 -30.345,-11.488c-38.352,-2.711 -55.339,-45.562 -57.613,-51.299c-36.629,-92.4 -21.995,-161.819 10.55,-250.019c20.894,-56.624 10.704,-59.163 30.794,-116.512c15.841,-45.22 -71.339,-69.319 -56.058,-158.519c10.376,-60.567 74.068,-80.758 76.84,-82.487c38.942,-24.3 -35.934,-180.207 126.494,-267.385c58.232,-31.254 51.271,-39.752 70.585,-84.012c57.254,-131.201 73.535,-129.27 91.423,-168.683c64.15,-141.348 107.934,-125.473 241.432,-145.984c83.908,-12.892 104.115,-87.724 197.808,-90.147c64.776,-1.675 63.168,-9.563 116.637,-36.109c88.882,-44.127 259.219,21.439 313.122,53.973c138.983,83.885 160.322,69.522 193.409,165.12c11.246,32.493 46.747,-23.368 187.548,75.721c122.744,86.382 136.189,118.04 142.265,132.347c28.382,66.831 -16.728,83.367 33.324,135.681c47.949,50.116 10.077,142.909 9.056,172.234c-2.024,58.111 179.977,56.99 126.855,269.741c-20.152,80.706 72.493,79.357 102.884,274.429c11.933,76.597 20.333,74.236 78.416,151.053c95.34,126.09 43.685,206.753 45.469,249.073c0.663,15.72 73.909,64.573 79.91,130.271c9.852,107.862 -66.899,155.104 -78.119,165.551c-31.369,29.207 69.706,113.501 -30.681,190.784l-2.5,1.463c-12.471,7.903 -42.089,39.026 -137.256,40.688c-53.7,0.938 -105.105,-43.705 -158.569,20.819c-13.663,16.489 -30.698,66.956 -154.491,77.454c-2.623,0.222 -40.085,6.881 -101.835,-14.797c-49.283,-30.62 -63.719,-53.962 -94.436,-4.379c-10.955,17.684 -9.858,45.52 -45.533,59.844c-1.958,0.786 -1.829,0.688 -24.69,9.288c-10.981,0.3 -60.251,8.252 -103.894,-27.367c-8.027,-6.551 -83.216,-79.418 19.628,-171.538c26.577,-23.806 10.669,-29.778 5.157,-44.913c-47.644,-130.829 102.496,-134.284 112.344,-206.983c9.242,-68.228 19.864,-101.613 22.592,-110.188c18.995,-59.704 11.745,-61.218 32.175,-120.86Z" style="fill:#4f3f34;"/><path d="M2783.013,2519.123c-0.897,7.564 -1.457,7.728 -0.968,8.169c3.518,3.181 1.747,-1.751 4.992,-5.003c44.314,15.349 144.625,36.453 157.316,39.123c11.873,2.498 30.313,15.55 38.195,24.128c13.136,14.296 12.647,15.566 10.086,34.573c-5.664,-1.129 -41.624,-8.298 -72.082,3.984c-94.109,37.95 -108.205,116.923 -127.097,220.868c-13.826,76.072 -15.364,75.733 -16.34,82.38c-1.868,12.727 -12.927,88.069 -25.919,158.683c-24.733,134.434 -33.446,343.798 -41.443,462.649l-0.64,4.834c-49.048,2.605 -884.238,1.88 -887.309,-0.04c-1.475,-0.922 -0.009,-4.082 -1.484,-5.004c7.513,-23.637 15.027,-20.36 110.277,-289.751c18.535,-52.421 36.622,-39.715 87.656,-106.073c86.751,-112.801 91.592,-117.309 77.546,-172.329c-15.839,-62.046 86.097,-32.041 114.391,-188.334c3.062,-16.912 0.235,-47.2 14.634,-91.653c1.072,-3.309 -1.26,-3.541 6.666,-42.967c1.425,-7.09 0.424,-6.742 -0.628,-14.075c61.75,21.678 99.212,15.019 101.835,14.797c123.793,-10.499 140.828,-60.965 154.491,-77.454c53.464,-64.524 104.869,-19.881 158.569,-20.819c95.166,-1.662 124.785,-32.785 137.256,-40.688Z" style="fill:#7b5e48;"/><path d="M2154.207,2026.192c-17.72,-10.711 -16.133,2.642 -48.809,37.844c-11.156,12.019 -201.548,202.554 -302.64,232.266c-249.241,73.256 -369.982,-108.005 -434.778,-139.307c-28.053,-31.962 -28.502,-31.058 -56.079,-63.83c-19.927,-23.681 -94.186,-111.927 -111.562,-370.435c-14.052,-209.05 -34.217,-263.218 -18.692,-268.555c21.646,-7.441 10.286,12.306 26.801,66.681c53.682,176.746 352.722,178.869 364.242,-63.068c1.711,-35.923 106.101,-48.226 170.907,-17.138c14.176,6.8 6.546,60.443 20.368,89.443c77.98,163.611 256.883,136.489 327.167,42.832c38.649,-51.502 35.642,-109.411 35.739,-110.112c2.393,-17.323 10.169,-8.532 27.555,-9.001c32.373,-0.873 135.179,-165.444 192.453,-140.184c61.958,27.325 -0.467,190.682 -6.355,206.09c-60.626,158.649 -39.068,174.732 -112.589,228.933c-5.625,4.147 -7.547,5.564 -21.048,84.777c-3.77,22.118 -4.962,21.393 -9.066,43.484c-15.222,81.938 -27.992,78.113 -43.612,149.28Z" style="fill:#eac2a2;"/><path d="M1372.395,2313.719c7.208,9.517 8.463,9.146 7.543,20.769c-2.585,32.676 16.959,274.395 62.7,351.026c0.741,1.242 74.881,109.172 145.784,261.933c40.097,86.388 27.277,92.413 80.004,171.955c38.388,57.909 87.659,185.734 93.744,222.412c0.499,3.007 11.5,69.32 17.474,33.857c27.495,-163.222 -21.716,-238.017 107.234,-432.482c28.417,-42.854 137.444,-167.377 149.849,-181.546c40.345,-46.079 29.523,-51.254 29.477,-53.604c22.861,-8.6 22.731,-8.502 24.69,-9.288c35.675,-14.324 34.577,-42.16 45.533,-59.844c30.717,-49.583 45.153,-26.241 94.436,4.379c1.052,7.334 2.054,6.985 0.628,14.075c-7.925,39.426 -5.594,39.658 -6.666,42.967c-14.399,44.453 -11.572,74.741 -14.634,91.653c-28.294,156.293 -130.23,126.288 -114.391,188.334c14.046,55.021 9.205,59.529 -77.546,172.329c-51.033,66.358 -69.121,53.652 -87.656,106.073c-95.249,269.391 -102.763,266.114 -110.277,289.751c-16.595,8.382 -17.591,5.671 -191.084,5.921c-91.062,0.131 -90.63,0.204 -158.993,0.074c-176.062,-0.335 -176.651,2.198 -196,-5.887c-34.045,-381.709 61.007,-746.375 22.152,-759.307c-31.623,-10.526 -37.335,44.221 -101.636,78.62c-82.362,44.062 -82.666,46.478 -90.068,43.444c-19.699,-8.076 17.238,-148.808 20.385,-156.099c12.83,-12.968 14.592,-9.418 32.345,-14.938c115.1,-35.788 62.558,-114.832 138.482,-295.261c37.361,-88.786 48.095,-82.545 76.491,-131.317Z" style="fill:#fcfcfc;"/><path d="M2204.055,1192.776c5.895,99.413 13.358,98.156 25.625,163.854c1.328,7.113 0.648,8.617 -62.575,65.317c-22.563,20.235 -41.974,9.126 -43.821,3.163c-14.271,-46.073 -30.347,-102.017 -122.774,-136.714c-46.008,-17.271 -187.202,-23.488 -239.613,116.883c-14.2,38.033 -30.712,-12.926 -121.843,-3.03c-24.925,2.707 -69.432,22.811 -73.281,12.567c-7.392,-19.673 -15.075,-63.692 -76.481,-106.049c-102.412,-70.644 -255.272,-7.764 -283.352,96.193c-5.915,21.898 -4.251,33.249 -25.3,24.882c-5.075,-2.018 -6.265,-3.645 -2.088,-68.24c3.466,-53.606 40.607,-167.017 40.729,-250.731c0.098,-67.13 -16.688,-255.056 106.538,-308.082c67.462,-29.03 107.76,52.713 375.578,18.344c230.743,-29.611 348.732,-78.656 384.309,-55.293c5.56,3.651 75.616,32.825 118.23,200.072c13.347,52.382 2.956,142.717 0.119,226.863Z" style="fill:#ebc2a2;"/><path d="M2992.634,2620.114c90.947,65.294 93.517,60.805 184.12,127.225c6.881,5.045 9.834,-0.085 29.426,19.344c16.773,16.633 38.936,25.034 73.562,74.985c2.794,4.031 2.23,14.672 3.83,17.072c47.025,70.485 47.333,75.143 47.838,82.775c1.029,15.559 8.044,13.657 8.961,28.919c0.845,14.06 -2.606,15.21 6.684,26.049c7.988,9.32 -2.927,36.253 10.418,56.855c7.39,11.409 -3.333,58.09 9.375,72.82c10.157,11.774 -0.147,88.202 7.852,98.591c12.315,15.995 6.425,18.215 7.648,135.997c0.194,18.661 11.136,15.037 13.492,33.893c1.476,11.814 11.586,10.082 12.689,23.809c1.053,13.103 4.48,11.589 9.503,23.485c2.418,5.727 -0.607,31.457 8.236,44.039c15.368,21.866 -5.536,30.064 12.983,49.636c17.808,18.821 -11.151,19.001 -12.993,19.013c-28.497,0.178 -306.529,0.263 -385.449,-0.078c-309.996,-1.338 -310.853,2.574 -331.055,-5.866c7.997,-118.851 16.71,-328.215 41.443,-462.649c12.991,-70.614 24.051,-145.957 25.919,-158.683c0.976,-6.648 2.514,-6.308 16.34,-82.38c18.892,-103.945 32.987,-182.918 127.097,-220.868c30.458,-12.282 66.418,-5.113 72.082,-3.984Z" style="fill:#fbfcfc;"/><path d="M2154.207,2026.192c-20.43,59.642 -13.179,61.156 -32.175,120.86c-2.728,8.575 -13.35,41.96 -22.592,110.188c-9.848,72.699 -159.988,76.154 -112.344,206.983c5.512,15.135 21.421,21.107 -5.157,44.913c-102.844,92.121 -27.655,164.987 -19.628,171.538c43.643,35.618 92.913,27.666 103.894,27.367c0.046,2.35 10.868,7.525 -29.477,53.604c-12.405,14.169 -121.432,138.692 -149.849,181.546c-128.95,194.464 -79.739,269.26 -107.234,432.482c-5.974,35.463 -16.975,-30.85 -17.474,-33.857c-6.085,-36.678 -55.357,-164.503 -93.744,-222.412c-52.728,-79.542 -39.908,-85.566 -80.004,-171.955c-70.903,-152.761 -145.043,-260.691 -145.784,-261.933c-45.741,-76.632 -65.285,-318.351 -62.7,-351.026c0.92,-11.623 -0.335,-11.252 -7.543,-20.769c8.144,-22.09 -1.765,-146.236 -4.416,-156.725c64.796,31.302 185.537,212.563 434.778,139.307c101.092,-29.713 291.484,-220.248 302.64,-232.266c32.675,-35.202 31.089,-48.555 48.809,-37.844Z" style="fill:#d7a88b;"/><path d="M794.735,2657.247c19.582,16.688 12.671,21.375 27.089,42.403c40.728,59.4 166.241,138.106 253.924,73.912c34.481,-25.245 40.132,-17.242 49.33,-18.327c-3.146,7.292 -40.084,148.023 -20.385,156.099c7.402,3.034 7.706,0.618 90.068,-43.444c64.301,-34.399 70.013,-89.146 101.636,-78.62c38.855,12.933 -56.197,377.598 -22.152,759.307c-1.423,0.832 1.068,4.101 -0.355,4.933c-0.893,0.522 -0.565,0.302 -227.581,1.521c-257.398,1.382 -258.891,4.143 -278.466,-6.505c-83.862,-254.712 -11.903,-765.683 26.891,-891.28Z" style="fill:#7b5e48;"/><path d="M819.257,2531.948c-10.539,38.774 -16.965,37.862 -24.522,125.299c-38.794,125.597 -110.753,636.568 -26.891,891.28c-1.418,0.884 0.564,4.055 -0.853,4.938c-0.803,0.501 -431.789,2.872 -438.276,-0.559c-1.964,-1.038 -14.308,-37.349 2.51,-63.365c3.001,-4.642 0.641,-24.733 4.058,-31.231c8.04,-15.291 -0.551,-18.456 10.383,-31.778c7.697,-9.379 -2.419,-23.82 10.42,-38.181c5.918,-6.62 6.032,-65.88 0.378,-69.867c-29.594,-20.864 -0.531,-37.3 -0.143,-49.374c0.752,-23.408 -4.479,-24.861 8.575,-44.411c7.23,-10.827 -7.662,-36.859 10.231,-62.408c5.144,-7.346 -4.572,-29.851 9.856,-48.327c6.837,-8.756 -4.865,-24.279 10.653,-42.537c7.099,-8.352 -1.581,-21.2 8.111,-34.784c10.149,-14.223 -3.029,-19.41 13.296,-40.773c59.972,-78.482 36.567,-167.55 106.031,-274.729c99.501,-153.524 141.904,-132.175 171.309,-158.947c22.146,2.208 25.241,4.683 38.453,-11.073c25.123,-5.494 26.306,-5.853 28.548,-6.535c39.198,-11.915 39.545,-24.532 57.873,-12.64Z" style="fill:#fbfbfb;"/><path d="M2105.459,1457.75c-0.322,7.044 4.267,58.269 -38.51,110.196c-114.477,138.965 -356.766,13.718 -277.498,-177.052c1.665,-4.007 44.343,-82.892 133.763,-90.251c64.303,-5.292 171.304,22.215 182.245,157.107Z" style="fill:#eac2a3;"/><path d="M1545.629,1419.58c2.855,26.081 18.33,93.416 -42.581,157.633c-119.299,125.774 -337.946,-5.673 -272.024,-176.563c48.691,-126.221 262.728,-148.326 314.605,18.93Z" style="fill:#eac2a2;"/><path d="M2783.013,2519.123l2.5,-1.463l1.523,4.629c-3.245,3.252 -1.474,8.183 -4.992,5.003c-0.488,-0.441 0.072,-0.605 0.968,-8.169Z" style="fill:#816d5d;"/></g></svg>